<?xml version="1.0" encoding="UTF-8" standalone="no"?>
<!-- Created with Inkscape (http://www.inkscape.org/) -->

<svg
   version="1.1"
   id="svg2"
   width="528"
   height="144"
   viewBox="0 0 528 144"
   sodipodi:docname="ReiserRelief_Logo_2015_HorizColor_Final.ai"
   xmlns:inkscape="http://www.inkscape.org/namespaces/inkscape"
   xmlns:sodipodi="http://sodipodi.sourceforge.net/DTD/sodipodi-0.dtd"
   xmlns="http://www.w3.org/2000/svg"
   xmlns:svg="http://www.w3.org/2000/svg">
  <defs
     id="defs6">
    <clipPath
       clipPathUnits="userSpaceOnUse"
       id="clipPath16">
      <path
         d="M 0,108 H 396 V 0 H 0 Z"
         id="path14" />
    </clipPath>
  </defs>
  <sodipodi:namedview
     id="namedview4"
     pagecolor="#ffffff"
     bordercolor="#000000"
     borderopacity="0.25"
     inkscape:showpageshadow="2"
     inkscape:pageopacity="0.0"
     inkscape:pagecheckerboard="0"
     inkscape:deskcolor="#d1d1d1" />
  <g
     id="g8"
     inkscape:groupmode="layer"
     inkscape:label="ReiserRelief_Logo_2015_HorizColor_Final"
     transform="matrix(1.3333333,0,0,-1.3333333,0,144)">
    <g
       id="g10">
      <g
         id="g12"
         clip-path="url(#clipPath16)">
        <g
           id="g18"
           transform="translate(377.6686,32.4199)">
          <path
             d="m 0,0 c -0.21,0.219 -0.503,0.344 -0.816,0.344 h -79.183 c -0.307,0 -0.604,-0.125 -0.813,-0.343 -0.21,-0.206 -0.331,-0.508 -0.324,-0.821 0.007,-0.311 0.139,-0.604 0.364,-0.806 0.215,-0.194 0.482,-0.297 0.773,-0.297 h 79.183 c 0.292,0 0.561,0.103 0.776,0.297 0.239,0.214 0.371,0.509 0.371,0.829 0,0.299 -0.12,0.59 -0.331,0.797"
             style="fill:#3cbfbc;fill-opacity:1;fill-rule:nonzero;stroke:none"
             id="path20" />
        </g>
        <g
           id="g22"
           transform="translate(227.1587,38.0053)">
          <path
             d="m 0,0 c -0.212,0.214 -0.516,0.339 -0.827,0.339 -0.332,0 -0.647,-0.139 -0.867,-0.382 -0.198,-0.226 -0.301,-0.499 -0.301,-0.792 v -4.188 h -5.218 v 4.188 c 0,0.312 -0.125,0.609 -0.352,0.836 -0.225,0.219 -0.518,0.338 -0.829,0.338 -0.33,0 -0.642,-0.137 -0.858,-0.376 -0.201,-0.22 -0.308,-0.497 -0.308,-0.798 v -10.802 c 0,-0.676 0.49,-1.167 1.166,-1.167 0.295,0 0.571,0.106 0.797,0.308 0.248,0.223 0.384,0.528 0.384,0.859 v 4.334 h 5.218 v -4.334 c 0,-0.676 0.49,-1.167 1.165,-1.167 0.295,0 0.577,0.108 0.795,0.305 0.248,0.219 0.387,0.526 0.387,0.862 V -0.835 C 0.352,-0.523 0.224,-0.218 0,0"
             style="fill:#3cbfbc;fill-opacity:1;fill-rule:nonzero;stroke:none"
             id="path24" />
        </g>
        <g
           id="g26"
           transform="translate(239.4709,31.2167)">
          <path
             d="M 0,0 1.553,3.309 3.106,0 Z M 7.808,-4.747 7.721,-4.43 C 6.851,-2.576 6.142,-1.063 5.571,0.167 4.997,1.406 4.519,2.424 4.138,3.223 3.761,4.018 3.47,4.634 3.268,5.073 L 2.586,6.523 C 2.57,6.557 2.55,6.588 2.524,6.616 L 2.335,6.827 C 2.136,6.999 1.932,7.093 1.714,7.123 1.667,7.145 1.616,7.159 1.565,7.159 H 1.564 C 1.497,7.159 1.43,7.146 1.371,7.12 0.965,7.06 0.622,6.797 0.473,6.422 L 0.284,6.039 C 0.185,5.833 0.03,5.509 -0.176,5.068 L -2.472,0.164 C -3.05,-1.064 -3.758,-2.577 -4.599,-4.379 l -0.092,-0.39 c -0.009,-0.571 0.26,-0.984 0.693,-1.155 l 0.39,-0.084 c 0.007,0 0.014,0 0.021,0 0.538,0 0.953,0.279 1.108,0.692 l 1.422,3.033 h 5.236 l 1.417,-3.024 c 0.161,-0.42 0.581,-0.708 1.06,-0.708 l 0.37,0.061 c 0.519,0.199 0.796,0.614 0.796,1.106 0,0.034 -0.005,0.068 -0.014,0.101"
             style="fill:#3cbfbc;fill-opacity:1;fill-rule:nonzero;stroke:none"
             id="path28" />
        </g>
        <g
           id="g30"
           transform="translate(256.5483,38.0067)">
          <path
             d="m 0,0 c -0.225,0.219 -0.518,0.338 -0.829,0.338 -0.329,0 -0.642,-0.138 -0.858,-0.377 -0.201,-0.219 -0.308,-0.496 -0.308,-0.798 v -10.785 c 0,-0.303 0.107,-0.581 0.31,-0.802 0.221,-0.245 0.526,-0.381 0.856,-0.381 0.312,0 0.599,0.119 0.831,0.345 0.227,0.227 0.35,0.524 0.35,0.838 V -0.837 C 0.352,-0.524 0.227,-0.227 0,0"
             style="fill:#3cbfbc;fill-opacity:1;fill-rule:nonzero;stroke:none"
             id="path32" />
        </g>
        <g
           id="g34"
           transform="translate(274.3715,38.2018)">
          <path
             d="m 0,0 h -7.912 c -0.646,0 -1.132,-0.487 -1.132,-1.132 0,-0.655 0.486,-1.148 1.132,-1.148 h 2.782 v -9.553 c 0,-0.331 0.136,-0.635 0.383,-0.858 0.222,-0.202 0.499,-0.309 0.8,-0.309 0.675,0 1.165,0.49 1.165,1.167 V -2.28 H 0 c 0.655,0 1.148,0.493 1.148,1.148 C 1.148,-0.487 0.655,0 0,0"
             style="fill:#3cbfbc;fill-opacity:1;fill-rule:nonzero;stroke:none"
             id="path36" />
        </g>
        <g
           id="g38"
           transform="translate(285.1143,38.3426)">
          <path
             d="m 0,0 c -0.331,0 -0.645,-0.136 -0.86,-0.374 -0.201,-0.222 -0.308,-0.498 -0.308,-0.799 v -10.785 c 0,-0.302 0.107,-0.579 0.308,-0.801 0.222,-0.246 0.526,-0.382 0.857,-0.382 0.309,0 0.609,0.124 0.824,0.34 0.228,0.218 0.357,0.519 0.357,0.843 v 10.785 c 0,0.318 -0.13,0.624 -0.355,0.839 C 0.613,-0.121 0.318,0 0,0"
             style="fill:#3cbfbc;fill-opacity:1;fill-rule:nonzero;stroke:none"
             id="path40" />
        </g>
        <g
           id="g42"
           transform="translate(207.0271,32.42)">
          <path
             d="m 0,0 c -0.211,0.219 -0.503,0.344 -0.817,0.344 h -79.182 c -0.308,0 -0.604,-0.125 -0.813,-0.343 -0.21,-0.206 -0.331,-0.508 -0.324,-0.821 0.007,-0.31 0.139,-0.604 0.363,-0.806 0.216,-0.194 0.483,-0.297 0.774,-0.297 h 79.182 c 0.293,0 0.561,0.103 0.777,0.297 0.239,0.214 0.371,0.509 0.371,0.829 C 0.331,-0.498 0.21,-0.208 0,0"
             style="fill:#3cbfbc;fill-opacity:1;fill-rule:nonzero;stroke:none"
             id="path44" />
        </g>
        <g
           id="g46"
           transform="translate(139.7107,69.8482)">
          <path
             d="m 0,0 c -0.684,0.604 -1.54,0.906 -2.565,0.906 h -7.595 v -6.704 h 7.595 c 1.003,0 1.852,0.29 2.548,0.872 0.695,0.582 1.043,1.396 1.043,2.446 C 1.026,-1.431 0.684,-0.605 0,0 M 3.626,-6.055 C 2.919,-7.116 1.892,-7.874 0.548,-8.33 c 0.114,-0.205 0.296,-0.564 0.547,-1.077 0.251,-0.514 0.633,-1.3 1.145,-2.361 0.514,-1.06 1.238,-2.548 2.173,-4.464 0.114,-0.205 0.171,-0.456 0.171,-0.752 0,-0.343 -0.086,-0.662 -0.256,-0.958 -0.172,-0.297 -0.417,-0.525 -0.736,-0.684 -0.205,-0.114 -0.468,-0.171 -0.787,-0.171 -0.342,0 -0.656,0.091 -0.941,0.273 -0.285,0.182 -0.507,0.433 -0.667,0.753 l -4.275,8.825 h -7.082 v -8.038 c 0,-0.525 -0.182,-0.958 -0.547,-1.3 -0.365,-0.342 -0.798,-0.513 -1.3,-0.513 -0.502,0 -0.929,0.176 -1.282,0.53 -0.355,0.353 -0.531,0.781 -0.531,1.283 v 19.43 c 0,0.501 0.176,0.928 0.531,1.283 0.353,0.353 0.78,0.53 1.282,0.53 h 8.962 c 1.072,0 2.076,-0.132 3.011,-0.394 0.935,-0.262 1.756,-0.667 2.463,-1.214 0.706,-0.548 1.26,-1.237 1.659,-2.07 0.398,-0.833 0.599,-1.818 0.599,-2.959 0,-1.391 -0.354,-2.617 -1.061,-3.677"
             style="fill:#3cbfbc;fill-opacity:1;fill-rule:nonzero;stroke:none"
             id="path48" />
        </g>
        <g
           id="g50"
           transform="translate(166.991,51.8207)">
          <path
             d="m 0,0 c -0.33,-0.331 -0.735,-0.496 -1.214,-0.496 h -13.204 c -0.525,0 -0.964,0.176 -1.317,0.53 -0.354,0.353 -0.531,0.792 -0.531,1.317 v 19.122 c 0,0.525 0.177,0.958 0.531,1.3 0.353,0.342 0.792,0.513 1.317,0.513 h 12.691 c 0.478,0 0.889,-0.159 1.231,-0.479 0.342,-0.319 0.514,-0.718 0.514,-1.197 0,-0.479 -0.172,-0.89 -0.514,-1.231 -0.342,-0.343 -0.753,-0.514 -1.231,-0.514 h -10.878 v -6.02 h 6.089 c 0.479,0 0.883,-0.166 1.214,-0.496 0.33,-0.331 0.496,-0.736 0.496,-1.214 0,-0.48 -0.166,-0.885 -0.496,-1.215 C -5.633,9.589 -6.037,9.424 -6.516,9.424 h -6.089 v -6.5 H -1.214 C -0.735,2.924 -0.33,2.759 0,2.428 0.33,2.098 0.496,1.693 0.496,1.214 0.496,0.735 0.33,0.33 0,0"
             style="fill:#3cbfbc;fill-opacity:1;fill-rule:nonzero;stroke:none"
             id="path52" />
        </g>
        <g
           id="g54"
           transform="translate(175.4233,51.581)">
          <path
             d="m 0,0 c -0.342,-0.354 -0.775,-0.53 -1.3,-0.53 -0.525,0 -0.964,0.176 -1.317,0.53 -0.354,0.354 -0.53,0.792 -0.53,1.317 v 19.669 c 0,0.525 0.176,0.963 0.53,1.318 0.353,0.353 0.792,0.53 1.317,0.53 0.525,0 0.958,-0.177 1.3,-0.53 0.342,-0.355 0.513,-0.793 0.513,-1.318 V 1.317 C 0.513,0.792 0.342,0.354 0,0"
             style="fill:#3cbfbc;fill-opacity:1;fill-rule:nonzero;stroke:none"
             id="path56" />
        </g>
        <g
           id="g58"
           transform="translate(199.2315,54.4204)">
          <path
             d="m 0,0 c -0.524,-0.856 -1.214,-1.545 -2.07,-2.07 -0.854,-0.525 -1.829,-0.901 -2.924,-1.129 -1.095,-0.227 -2.212,-0.342 -3.353,-0.342 -0.707,0 -1.465,0.046 -2.274,0.137 -0.81,0.091 -1.614,0.24 -2.412,0.445 -0.798,0.205 -1.556,0.473 -2.275,0.804 -0.718,0.33 -1.351,0.735 -1.898,1.214 -0.183,0.159 -0.331,0.365 -0.445,0.616 -0.114,0.25 -0.171,0.513 -0.171,0.787 0,0.182 0.022,0.359 0.069,0.53 0.045,0.171 0.125,0.325 0.239,0.462 0.342,0.41 0.764,0.616 1.266,0.616 0.387,0 0.763,-0.115 1.129,-0.343 1.163,-0.707 2.296,-1.197 3.403,-1.47 1.106,-0.275 2.24,-0.411 3.404,-0.411 0.547,0 1.134,0.045 1.762,0.136 0.627,0.092 1.214,0.251 1.761,0.48 0.548,0.228 1.003,0.547 1.368,0.957 0.365,0.411 0.548,0.935 0.548,1.574 0,0.615 -0.222,1.129 -0.667,1.539 -0.445,0.411 -1.032,0.776 -1.762,1.095 -0.73,0.319 -1.573,0.621 -2.531,0.907 -0.958,0.284 -1.962,0.62 -3.011,1.008 -0.752,0.275 -1.488,0.587 -2.206,0.942 -0.718,0.353 -1.351,0.774 -1.898,1.265 -0.548,0.49 -0.992,1.083 -1.335,1.779 -0.342,0.696 -0.513,1.522 -0.513,2.48 0,1.163 0.257,2.138 0.77,2.925 0.513,0.787 1.191,1.414 2.035,1.881 0.844,0.468 1.791,0.798 2.839,0.992 1.049,0.193 2.109,0.291 3.182,0.291 0.593,0 1.226,-0.046 1.898,-0.137 0.673,-0.091 1.346,-0.217 2.019,-0.376 0.672,-0.16 1.328,-0.348 1.967,-0.565 0.638,-0.217 1.219,-0.461 1.744,-0.735 0.319,-0.16 0.553,-0.371 0.701,-0.633 0.149,-0.263 0.223,-0.542 0.223,-0.838 0,-0.297 -0.058,-0.559 -0.171,-0.787 -0.137,-0.297 -0.337,-0.519 -0.599,-0.667 -0.263,-0.148 -0.553,-0.222 -0.872,-0.222 -0.297,0 -0.57,0.045 -0.821,0.137 -0.867,0.387 -1.808,0.73 -2.822,1.026 -1.015,0.296 -2.093,0.445 -3.233,0.445 -0.524,0 -1.089,-0.035 -1.693,-0.103 -0.604,-0.068 -1.169,-0.205 -1.693,-0.411 -0.526,-0.205 -0.959,-0.49 -1.3,-0.854 -0.343,-0.366 -0.513,-0.834 -0.513,-1.403 0,-0.593 0.256,-1.106 0.769,-1.54 0.514,-0.433 1.134,-0.821 1.865,-1.163 0.729,-0.342 1.51,-0.645 2.343,-0.906 0.832,-0.262 1.567,-0.496 2.206,-0.702 0.912,-0.319 1.779,-0.656 2.6,-1.008 0.821,-0.354 1.539,-0.776 2.155,-1.267 0.616,-0.49 1.1,-1.077 1.454,-1.761 C 0.61,4.943 0.787,4.11 0.787,3.13 0.787,1.898 0.524,0.855 0,0"
             style="fill:#3cbfbc;fill-opacity:1;fill-rule:nonzero;stroke:none"
             id="path60" />
        </g>
        <g
           id="g62"
           transform="translate(222.0991,51.8207)">
          <path
             d="m 0,0 c -0.33,-0.331 -0.735,-0.496 -1.214,-0.496 h -13.204 c -0.525,0 -0.964,0.176 -1.317,0.53 -0.354,0.353 -0.531,0.792 -0.531,1.317 v 19.122 c 0,0.525 0.177,0.958 0.531,1.3 0.353,0.342 0.792,0.513 1.317,0.513 h 12.691 c 0.478,0 0.889,-0.159 1.231,-0.479 0.342,-0.319 0.514,-0.718 0.514,-1.197 0,-0.479 -0.172,-0.89 -0.514,-1.231 -0.342,-0.343 -0.753,-0.514 -1.231,-0.514 h -10.878 v -6.02 h 6.089 c 0.479,0 0.883,-0.166 1.214,-0.496 0.33,-0.331 0.496,-0.736 0.496,-1.214 0,-0.48 -0.166,-0.885 -0.496,-1.215 C -5.633,9.589 -6.037,9.424 -6.516,9.424 h -6.089 v -6.5 H -1.214 C -0.735,2.924 -0.33,2.759 0,2.428 0.33,2.098 0.496,1.693 0.496,1.214 0.496,0.735 0.33,0.33 0,0"
             style="fill:#3cbfbc;fill-opacity:1;fill-rule:nonzero;stroke:none"
             id="path64" />
        </g>
        <g
           id="g66"
           transform="translate(241.2043,69.8482)">
          <path
             d="m 0,0 c -0.684,0.604 -1.54,0.906 -2.565,0.906 h -7.595 v -6.704 h 7.595 c 1.003,0 1.852,0.29 2.548,0.872 0.695,0.582 1.043,1.396 1.043,2.446 C 1.026,-1.431 0.684,-0.605 0,0 M 3.626,-6.055 C 2.919,-7.116 1.892,-7.874 0.548,-8.33 c 0.114,-0.205 0.296,-0.564 0.547,-1.077 0.251,-0.514 0.633,-1.3 1.145,-2.361 0.514,-1.06 1.238,-2.548 2.173,-4.464 0.114,-0.205 0.171,-0.456 0.171,-0.752 0,-0.343 -0.086,-0.662 -0.256,-0.958 -0.172,-0.297 -0.417,-0.525 -0.736,-0.684 -0.205,-0.114 -0.468,-0.171 -0.787,-0.171 -0.342,0 -0.656,0.091 -0.941,0.273 -0.285,0.182 -0.507,0.433 -0.667,0.753 l -4.275,8.825 h -7.082 v -8.038 c 0,-0.525 -0.182,-0.958 -0.547,-1.3 -0.365,-0.342 -0.798,-0.513 -1.3,-0.513 -0.502,0 -0.929,0.176 -1.282,0.53 -0.355,0.353 -0.531,0.781 -0.531,1.283 v 19.43 c 0,0.501 0.176,0.928 0.531,1.283 0.353,0.353 0.78,0.53 1.282,0.53 h 8.962 c 1.072,0 2.076,-0.132 3.011,-0.394 0.935,-0.262 1.756,-0.667 2.463,-1.214 0.706,-0.548 1.26,-1.237 1.659,-2.07 0.398,-0.833 0.599,-1.818 0.599,-2.959 0,-1.391 -0.354,-2.617 -1.061,-3.677"
             style="fill:#3cbfbc;fill-opacity:1;fill-rule:nonzero;stroke:none"
             id="path68" />
        </g>
        <g
           id="g70"
           transform="translate(275.7879,69.8482)">
          <path
             d="m 0,0 c -0.684,0.604 -1.54,0.906 -2.565,0.906 h -7.595 v -6.704 h 7.595 c 1.003,0 1.852,0.29 2.548,0.872 0.695,0.582 1.043,1.396 1.043,2.446 C 1.026,-1.431 0.684,-0.605 0,0 M 3.626,-6.055 C 2.919,-7.116 1.892,-7.874 0.548,-8.33 c 0.114,-0.205 0.296,-0.564 0.547,-1.077 0.251,-0.514 0.633,-1.3 1.145,-2.361 0.514,-1.06 1.238,-2.548 2.173,-4.464 0.114,-0.205 0.171,-0.456 0.171,-0.752 0,-0.343 -0.086,-0.662 -0.256,-0.958 -0.172,-0.297 -0.417,-0.525 -0.736,-0.684 -0.205,-0.114 -0.468,-0.171 -0.787,-0.171 -0.342,0 -0.656,0.091 -0.941,0.273 -0.285,0.182 -0.507,0.433 -0.667,0.753 l -4.275,8.825 h -7.082 v -8.038 c 0,-0.525 -0.182,-0.958 -0.547,-1.3 -0.365,-0.342 -0.798,-0.513 -1.3,-0.513 -0.502,0 -0.929,0.176 -1.282,0.53 -0.355,0.353 -0.531,0.781 -0.531,1.283 v 19.43 c 0,0.501 0.176,0.928 0.531,1.283 0.353,0.353 0.78,0.53 1.282,0.53 h 8.962 c 1.072,0 2.076,-0.132 3.011,-0.394 0.935,-0.262 1.756,-0.667 2.463,-1.214 0.706,-0.548 1.26,-1.237 1.659,-2.07 0.398,-0.833 0.599,-1.818 0.599,-2.959 0,-1.391 -0.354,-2.617 -1.061,-3.677"
             style="fill:#3cbfbc;fill-opacity:1;fill-rule:nonzero;stroke:none"
             id="path72" />
        </g>
        <g
           id="g74"
           transform="translate(303.0682,51.8207)">
          <path
             d="m 0,0 c -0.33,-0.331 -0.735,-0.496 -1.214,-0.496 h -13.204 c -0.525,0 -0.964,0.176 -1.317,0.53 -0.354,0.353 -0.531,0.792 -0.531,1.317 v 19.122 c 0,0.525 0.177,0.958 0.531,1.3 0.353,0.342 0.792,0.513 1.317,0.513 h 12.691 c 0.478,0 0.889,-0.159 1.231,-0.479 0.342,-0.319 0.514,-0.718 0.514,-1.197 0,-0.479 -0.172,-0.89 -0.514,-1.231 -0.342,-0.343 -0.753,-0.514 -1.231,-0.514 h -10.878 v -6.02 h 6.089 c 0.479,0 0.883,-0.166 1.214,-0.496 0.33,-0.331 0.496,-0.736 0.496,-1.214 0,-0.48 -0.166,-0.885 -0.496,-1.215 C -5.633,9.589 -6.037,9.424 -6.516,9.424 h -6.089 v -6.5 H -1.214 C -0.735,2.924 -0.33,2.759 0,2.428 0.33,2.098 0.496,1.693 0.496,1.214 0.496,0.735 0.33,0.33 0,0"
             style="fill:#3cbfbc;fill-opacity:1;fill-rule:nonzero;stroke:none"
             id="path76" />
        </g>
        <g
           id="g78"
           transform="translate(324.2423,51.8376)">
          <path
             d="m 0,0 c -0.329,-0.342 -0.734,-0.513 -1.215,-0.513 h -12.827 c -0.525,0 -0.963,0.176 -1.316,0.53 -0.355,0.353 -0.531,0.792 -0.531,1.317 V 20.73 c 0,0.524 0.176,0.963 0.531,1.317 0.353,0.353 0.791,0.53 1.316,0.53 0.525,0 0.964,-0.177 1.318,-0.53 0.353,-0.354 0.529,-0.793 0.529,-1.317 V 2.908 h 10.98 C -0.734,2.908 -0.329,2.748 0,2.429 0.332,2.109 0.498,1.71 0.498,1.232 0.498,0.752 0.332,0.342 0,0"
             style="fill:#3cbfbc;fill-opacity:1;fill-rule:nonzero;stroke:none"
             id="path80" />
        </g>
        <g
           id="g82"
           transform="translate(332.1622,51.581)">
          <path
             d="m 0,0 c -0.342,-0.354 -0.776,-0.53 -1.299,-0.53 -0.526,0 -0.965,0.176 -1.318,0.53 -0.354,0.354 -0.53,0.792 -0.53,1.317 v 19.669 c 0,0.525 0.176,0.963 0.53,1.318 0.353,0.353 0.792,0.53 1.318,0.53 0.523,0 0.957,-0.177 1.299,-0.53 0.342,-0.355 0.513,-0.793 0.513,-1.318 V 1.317 C 0.513,0.792 0.342,0.354 0,0"
             style="fill:#3cbfbc;fill-opacity:1;fill-rule:nonzero;stroke:none"
             id="path84" />
        </g>
        <g
           id="g86"
           transform="translate(356.1243,51.8207)">
          <path
             d="m 0,0 c -0.332,-0.331 -0.735,-0.496 -1.215,-0.496 h -13.203 c -0.526,0 -0.965,0.176 -1.318,0.53 -0.354,0.353 -0.53,0.792 -0.53,1.317 v 19.122 c 0,0.525 0.176,0.958 0.53,1.3 0.353,0.342 0.792,0.513 1.318,0.513 h 12.69 c 0.479,0 0.89,-0.159 1.232,-0.479 0.341,-0.319 0.513,-0.718 0.513,-1.197 0,-0.479 -0.172,-0.89 -0.513,-1.231 -0.342,-0.343 -0.753,-0.514 -1.232,-0.514 h -10.878 v -6.02 h 6.089 c 0.478,0 0.883,-0.166 1.215,-0.496 0.329,-0.331 0.495,-0.736 0.495,-1.214 0,-0.48 -0.166,-0.885 -0.495,-1.215 C -5.634,9.589 -6.039,9.424 -6.517,9.424 h -6.089 v -6.5 H -1.215 C -0.735,2.924 -0.332,2.759 0,2.428 0.33,2.098 0.495,1.693 0.495,1.214 0.495,0.735 0.33,0.33 0,0"
             style="fill:#3cbfbc;fill-opacity:1;fill-rule:nonzero;stroke:none"
             id="path88" />
        </g>
        <g
           id="g90"
           transform="translate(377.5037,71.1994)">
          <path
             d="m 0,0 c -0.33,-0.342 -0.735,-0.513 -1.215,-0.513 h -11.22 v -6.021 h 6.431 c 0.48,0 0.878,-0.165 1.198,-0.496 0.32,-0.331 0.478,-0.735 0.478,-1.214 0,-0.479 -0.158,-0.884 -0.478,-1.215 -0.32,-0.331 -0.718,-0.495 -1.198,-0.495 h -6.431 v -8.381 c 0,-0.526 -0.177,-0.959 -0.53,-1.3 -0.354,-0.343 -0.793,-0.513 -1.317,-0.513 -0.524,0 -0.957,0.17 -1.299,0.513 -0.343,0.341 -0.513,0.774 -0.513,1.3 v 19.43 c 0,0.524 0.17,0.957 0.513,1.299 0.342,0.343 0.775,0.514 1.299,0.514 H -1.215 C -0.735,2.908 -0.33,2.748 0,2.429 0.33,2.109 0.496,1.71 0.496,1.232 0.496,0.752 0.33,0.342 0,0"
             style="fill:#3cbfbc;fill-opacity:1;fill-rule:nonzero;stroke:none"
             id="path92" />
        </g>
        <g
           id="g94"
           transform="translate(91.6214,41.8751)">
          <path
             d="m 0,0 c 4.351,-2.147 6.932,-4.763 6.932,-7.594 0,-7.275 -16.884,-13.172 -37.711,-13.172 -20.827,0 -37.711,5.897 -37.711,13.172 0,2.831 2.581,5.447 6.932,7.594 -7.463,-2.693 -12.063,-6.36 -12.063,-10.404 0,-8.264 19.181,-14.964 42.842,-14.964 23.661,0 42.842,6.7 42.842,14.964 C 12.063,-6.36 7.463,-2.693 0,0"
             style="fill:#3cbfbc;fill-opacity:1;fill-rule:nonzero;stroke:none"
             id="path96" />
        </g>
        <g
           id="g98"
           transform="translate(70.7181,40.0354)">
          <path
             d="m 0,0 c 9.03,-1.343 15.363,-4.47 15.363,-8.114 0,-1.88 -1.698,-3.619 -4.569,-5.05 4.947,1.8 8.003,4.238 8.003,6.93 0,4.317 -7.835,7.985 -18.797,9.393"
             style="fill:#3cbfbc;fill-opacity:1;fill-rule:nonzero;stroke:none"
             id="path100" />
        </g>
        <g
           id="g102"
           transform="translate(57.631,40.6577)">
          <path
             d="M 0,0 C 1.054,0.047 2.121,0.079 3.211,0.079 4.302,0.079 5.368,0.047 6.423,0"
             style="fill:#3cbfbc;fill-opacity:1;fill-rule:nonzero;stroke:none"
             id="path104" />
        </g>
        <g
           id="g106"
           transform="translate(50.9665,43.1939)">
          <path
             d="m 0,0 c -10.962,-1.407 -18.797,-5.075 -18.797,-9.392 0,-2.692 3.056,-5.131 8.003,-6.93 -2.871,1.431 -4.569,3.169 -4.569,5.049 0,3.645 6.333,6.772 15.363,8.114"
             style="fill:#3cbfbc;fill-opacity:1;fill-rule:nonzero;stroke:none"
             id="path108" />
        </g>
        <g
           id="g110"
           transform="translate(64.0535,43.75)">
          <path
             d="M 0,0 C -1.056,0.041 -2.124,0.067 -3.211,0.067 -4.298,0.067 -5.367,0.041 -6.423,0"
             style="fill:#3cbfbc;fill-opacity:1;fill-rule:nonzero;stroke:none"
             id="path112" />
        </g>
        <g
           id="g114"
           transform="translate(48.9593,31.5082)">
          <path
             d="m 0,0 h 8.019 v 8.718 c 1.268,0.056 2.552,0.095 3.864,0.095 1.312,0 2.596,-0.039 3.864,-0.095 V 0 h 8.019 v 27.946 c 0,3.685 2.998,6.682 6.683,6.682 h 7.578 v 8.02 h -7.578 c -8.107,0 -14.702,-6.596 -14.702,-14.702 V 12.439 c -1.27,0.049 -2.556,0.08 -3.864,0.08 -1.308,0 -2.594,-0.031 -3.864,-0.08 v 15.507 c 0,8.106 -6.595,14.702 -14.702,14.702 h -7.578 v -8.02 h 7.578 C -2.998,34.628 0,31.631 0,27.946 Z"
             style="fill:#3cbfbc;fill-opacity:1;fill-rule:nonzero;stroke:none"
             id="path116" />
        </g>
        <g
           id="g118"
           transform="translate(56.589,78.5437)">
          <path
             d="m 0,0 c 2.626,-2.657 4.253,-6.305 4.253,-10.327 0,4.022 1.627,7.67 4.253,10.327 0.411,0.303 0.788,0.648 1.125,1.03 1.117,1.265 1.8,2.922 1.8,4.742 0,3.964 -3.214,7.177 -7.178,7.177 -3.964,0 -7.177,-3.213 -7.177,-7.177 0,-1.82 0.683,-3.477 1.799,-4.742 C -0.787,0.648 -0.411,0.303 0,0"
             style="fill:#3cbfbc;fill-opacity:1;fill-rule:nonzero;stroke:none"
             id="path120" />
        </g>
      </g>
    </g>
  </g>
</svg>
